<svg width="160" height="69" viewBox="0 0 160 69" xmlns="http://www.w3.org/2000/svg"><path d="M17.089 13.61H15.21V4.304h1.879v9.306zm8.868 0h-7.078V4.304h6.9V5.88h-5.021v2.063h4.672v1.567h-4.672v2.533h5.199v1.568zm8.194 0h-6.55V4.38h1.878v7.662h4.672v1.568zm4.349 0h-1.88V5.879h-2.76V4.304h7.394V5.88H38.5v7.731zm3.49-3.028l1.829-.178q.165.92.67 1.352.504.432 1.361.432.908 0 1.368-.384.46-.384.46-.898 0-.33-.193-.562-.194-.232-.676-.403-.33-.114-1.505-.406-1.51-.375-2.12-.92-.857-.769-.857-1.873 0-.711.403-1.33.403-.619 1.162-.943.758-.323 1.831-.323 1.752 0 2.638.768.885.768.93 2.05l-1.88.083q-.12-.718-.517-1.032-.396-.314-1.19-.314-.819 0-1.282.336-.298.216-.298.578 0 .33.279.565.355.298 1.726.622t2.028.67q.657.346 1.029.945.371.6.371 1.483 0 .8-.444 1.498-.445.698-1.257 1.037-.813.34-2.025.34-1.765 0-2.71-.816-.946-.815-1.13-2.377zm12.614 3.028V6.869h1.644v.92q.882-1.073 2.1-1.073.648 0 1.124.267.476.267.78.806.445-.54.96-.806.514-.267 1.098-.267.742 0 1.256.302.515.301.768.885.185.432.185 1.397v4.31h-1.784V9.757q0-1.003-.184-1.295-.248-.38-.762-.38-.374 0-.705.228-.33.228-.476.67-.146.44-.146 1.393v3.237H58.68V9.916q0-.984-.096-1.27-.095-.286-.295-.425-.2-.14-.542-.14-.413 0-.743.222-.33.223-.473.641-.143.42-.143 1.39v3.276h-1.783zM70.2 11.464l1.777.299q-.343.977-1.082 1.488-.74.511-1.85.511-1.759 0-2.603-1.149-.667-.92-.667-2.323 0-1.676.876-2.625.876-.949 2.216-.949 1.504 0 2.374.994.87.993.831 3.044h-4.468q.019.793.431 1.234.413.441 1.028.441.42 0 .705-.228.286-.229.432-.737zm-2.565-1.802h2.666q-.019-.775-.4-1.178-.38-.403-.926-.403-.584 0-.965.425-.381.426-.375 1.156zm7.224-.737l-1.619-.292q.273-.977.94-1.447.666-.47 1.98-.47 1.194 0 1.778.283.583.282.822.717.238.435.238 1.597l-.02 2.082q0 .888.086 1.31.086.423.32.905H77.62q-.07-.178-.171-.527-.045-.159-.064-.21-.457.445-.977.667-.52.222-1.111.222-1.041 0-1.641-.565-.6-.565-.6-1.428 0-.571.273-1.019.273-.447.765-.685.492-.238 1.419-.416 1.25-.235 1.733-.438v-.178q0-.514-.254-.733-.254-.219-.959-.219-.476 0-.742.187-.267.188-.432.657zm2.387 1.803v-.355q-.343.114-1.086.273-.743.158-.971.31-.35.248-.35.63 0 .374.28.647t.711.273q.483 0 .92-.318.324-.241.426-.59.07-.229.07-.87zm9.642-1.307v4.189h-1.784v-3.44q0-1.092-.114-1.413-.115-.32-.372-.498T84 8.08q-.464 0-.832.254-.368.254-.505.673-.136.419-.136 1.549v3.053h-1.784V6.869H82.4v.99q.882-1.143 2.222-1.143.59 0 1.079.213.488.213.74.543.25.33.348.749.099.419.099 1.2zm1.18 2.266l1.79-.273q.115.52.464.79.349.27.977.27.692 0 1.041-.254.235-.178.235-.476 0-.203-.127-.337-.133-.127-.596-.235-2.159-.476-2.736-.87-.8-.545-.8-1.516 0-.876.692-1.473.692-.597 2.145-.597 1.384 0 2.057.451.673.45.927 1.333l-1.682.311q-.108-.393-.41-.603-.301-.21-.86-.21-.705 0-1.01.197-.202.14-.202.362 0 .19.177.324.242.178 1.667.501 1.425.324 1.99.794.558.476.558 1.327 0 .926-.774 1.593-.775.666-2.292.666-1.377 0-2.18-.558-.803-.559-1.05-1.517zm11.337 1.923V6.869h1.644v.92q.883-1.073 2.101-1.073.648 0 1.124.267.476.267.78.806.445-.54.96-.806.513-.267 1.097-.267.743 0 1.257.302.514.301.768.885.184.432.184 1.397v4.31h-1.783V9.757q0-1.003-.184-1.295-.248-.38-.762-.38-.375 0-.705.228-.33.228-.476.67-.146.44-.146 1.393v3.237h-1.784V9.916q0-.984-.095-1.27-.095-.286-.295-.425-.2-.14-.543-.14-.412 0-.742.222-.33.223-.473.641-.143.42-.143 1.39v3.276h-1.784zm11.28-3.466q0-.888.438-1.72t1.241-1.27q.803-.438 1.793-.438 1.53 0 2.508.994.977.993.977 2.51 0 1.53-.987 2.536t-2.485 1.006q-.927 0-1.768-.419t-1.279-1.228q-.438-.81-.438-1.97zm1.828.095q0 1.003.476 1.537.476.533 1.175.533.698 0 1.17-.533.474-.534.474-1.55 0-.99-.473-1.523-.473-.533-1.171-.533-.699 0-1.175.533-.476.533-.476 1.536zm8.233 1.289v2.082h-1.784V6.869h1.657v.958q.425-.679.765-.895.34-.216.771-.216.61 0 1.175.337l-.553 1.555q-.45-.292-.838-.292-.374 0-.634.206-.26.207-.41.746-.149.54-.149 2.26zm7.255-.064l1.778.299q-.343.977-1.082 1.488-.74.511-1.85.511-1.76 0-2.603-1.149-.667-.92-.667-2.323 0-1.676.876-2.625.876-.949 2.215-.949 1.505 0 2.374.994.87.993.832 3.044h-4.469q.02.793.432 1.234.413.441 1.028.441.42 0 .705-.228.285-.229.431-.737zm-2.564-1.802h2.666q-.019-.775-.4-1.178-.38-.403-.927-.403-.584 0-.964.425-.381.426-.375 1.156zm12.492 3.948h-1.733l-2.133-6.741h1.733l1.264 4.418 1.161-4.418h1.72l1.124 4.418 1.289-4.418h1.758l-2.165 6.741h-1.714l-1.161-4.335-1.143 4.335zm8.906-7.655h-1.784v-1.65h1.784v1.65zm0 7.655h-1.784V6.869h1.784v6.741zm3.7-6.741h1.22V8.29h-1.22v2.716q0 .826.036.962.034.137.158.225.124.09.302.09.247 0 .717-.172l.152 1.384q-.622.266-1.409.266-.482 0-.87-.162-.387-.161-.568-.418-.18-.258-.25-.696-.057-.31-.057-1.256V8.29h-.82V6.87h.82v-1.34l1.79-1.04v2.38zm2.45-2.565h1.785v3.422q.863-1.01 2.063-1.01.615 0 1.11.229.495.228.746.584.25.355.343.787.092.432.092 1.34v3.954h-1.784v-3.561q0-1.06-.101-1.346-.102-.285-.359-.454-.257-.168-.644-.168-.444 0-.794.216-.349.216-.51.65-.162.435-.162 1.286v3.377h-1.784V4.304zM47.247 25.069h1.218v1.422h-1.218v2.716q0 .826.034.962.035.137.16.225.123.09.3.09.248 0 .718-.172l.152 1.384q-.622.266-1.409.266-.482 0-.87-.162-.387-.161-.568-.418-.18-.258-.25-.696-.057-.31-.057-1.256v-2.94h-.82V25.07h.82v-1.34l1.79-1.04v2.38zm2.45-2.565h1.783v3.422q.864-1.01 2.063-1.01.616 0 1.111.229.495.228.746.584.25.355.343.787.092.432.092 1.34v3.954h-1.784v-3.561q0-1.06-.101-1.346-.102-.285-.359-.454-.257-.168-.644-.168-.445 0-.794.216-.349.216-.51.65-.163.435-.163 1.286v3.377h-1.783v-9.306zm11.85 7.16l1.778.299q-.343.977-1.082 1.488-.74.511-1.85.511-1.759 0-2.603-1.149-.666-.92-.666-2.323 0-1.676.876-2.625.875-.949 2.215-.949 1.504 0 2.374.994.87.993.831 3.044h-4.468q.019.793.431 1.234.413.441 1.029.441.419 0 .704-.228.286-.229.432-.737zm-2.564-1.802h2.666q-.019-.775-.4-1.178-.38-.403-.926-.403-.584 0-.965.425-.38.426-.375 1.156zm9.522 3.948v-9.306h3.72q1.104 0 1.647.092.543.092.971.384.428.292.714.778.286.486.286 1.089 0 .653-.353 1.2-.352.545-.955.818.85.248 1.308.844.457.597.457 1.403 0 .635-.295 1.235-.296.6-.807.958-.51.359-1.26.442-.47.05-2.266.063h-3.167zm2.958-7.757h-1.08v2.152h1.232q1.098 0 1.365-.032.482-.057.759-.333.276-.276.276-.727 0-.431-.238-.701-.238-.27-.708-.327-.28-.032-1.606-.032zm.438 3.7h-1.517v2.49h1.739q1.016 0 1.289-.058.419-.076.682-.371.263-.296.263-.79 0-.42-.203-.712t-.587-.425q-.384-.133-1.666-.133zm7.68 1.975v2.082h-1.783v-6.741h1.657v.958q.425-.679.764-.895.34-.216.772-.216.61 0 1.174.337l-.552 1.555q-.45-.292-.838-.292-.375 0-.635.206-.26.207-.41.746-.148.54-.148 2.26zm5.136-5.573h-1.784v-1.65h1.784v1.65zm0 7.655h-1.784v-6.741h1.784v6.741zm3.7-6.741h1.22v1.422h-1.22v2.716q0 .826.035.962.035.137.16.225.123.09.3.09.248 0 .718-.172l.152 1.384q-.622.266-1.409.266-.482 0-.87-.162-.387-.161-.568-.418-.18-.258-.25-.696-.058-.31-.058-1.256v-2.94h-.818V25.07h.818v-1.34l1.79-1.04v2.38zm4.24-.914h-1.783v-1.65h1.784v1.65zm0 7.655h-1.783v-6.741h1.784v6.741zm1.2-1.923l1.79-.273q.115.52.464.79.349.27.977.27.692 0 1.041-.254.235-.178.235-.476 0-.203-.127-.337-.133-.127-.596-.235-2.159-.476-2.736-.87-.8-.545-.8-1.516 0-.876.692-1.473.692-.597 2.145-.597 1.384 0 2.057.451.673.45.927 1.333l-1.682.311q-.108-.393-.41-.603-.301-.21-.86-.21-.704 0-1.01.197-.202.14-.202.362 0 .19.177.324.242.178 1.667.501 1.425.324 1.99.794.558.476.558 1.327 0 .926-.774 1.593-.775.666-2.292.666-1.377 0-2.18-.558-.803-.559-1.05-1.517zm7.852-7.383h1.784v3.422q.863-1.01 2.063-1.01.616 0 1.111.229.495.228.746.584.25.355.343.787.092.432.092 1.34v3.954h-1.784v-3.561q0-1.06-.102-1.346-.101-.285-.358-.454-.257-.168-.645-.168-.444 0-.793.216-.35.216-.511.65-.162.435-.162 1.286v3.377h-1.784v-9.306zm17.526 5.885l1.822.577q-.419 1.524-1.393 2.263-.975.74-2.473.74-1.853 0-3.046-1.267-1.194-1.266-1.194-3.462 0-2.324 1.2-3.609 1.2-1.285 3.155-1.285 1.707 0 2.774 1.009.634.597.952 1.714l-1.86.444q-.165-.724-.689-1.142-.524-.42-1.273-.42-1.034 0-1.679.743-.644.743-.644 2.406 0 1.765.635 2.514.635.749 1.65.749.75 0 1.289-.476.54-.476.774-1.498zm3.01-.045q0-.888.437-1.72.438-.832 1.241-1.27.803-.438 1.793-.438 1.53 0 2.508.994.977.993.977 2.51 0 1.53-.987 2.536t-2.485 1.006q-.927 0-1.768-.419-.84-.419-1.279-1.228-.438-.81-.438-1.97zm1.827.095q0 1.003.476 1.537.476.533 1.175.533.698 0 1.17-.533.474-.534.474-1.55 0-.99-.473-1.523-.473-.533-1.171-.533-.699 0-1.175.533-.476.533-.476 1.536zm12.62 3.371h-1.657V30.8q-.368.54-.968.851-.6.311-1.267.311-.679 0-1.218-.298-.54-.298-.781-.838t-.241-1.492V25.07h1.783v3.097q0 1.422.099 1.743.098.32.358.508.26.187.66.187.457 0 .82-.25.361-.252.494-.623.134-.371.134-1.818v-2.844h1.783v6.741zm7.978-4.19v4.19h-1.783v-3.44q0-1.092-.115-1.413-.114-.32-.37-.498-.258-.178-.62-.178-.463 0-.831.254-.368.254-.505.673-.136.419-.136 1.549v3.053h-1.784v-6.741h1.657v.99q.882-1.143 2.221-1.143.59 0 1.08.213.488.213.739.543.25.33.349.749.098.419.098 1.2zm7.687-.558l-1.758.317q-.089-.527-.403-.793-.314-.267-.816-.267-.666 0-1.063.46-.397.46-.397 1.54 0 1.2.403 1.695.404.495 1.083.495.508 0 .831-.29.324-.288.457-.992l1.752.298q-.273 1.206-1.047 1.822-.774.615-2.076.615-1.479 0-2.358-.933-.88-.933-.88-2.583 0-1.67.883-2.6.883-.93 2.387-.93 1.231 0 1.958.53.727.53 1.044 1.616zm3.136-2.907h-1.784v-1.65h1.784v1.65zm0 7.655h-1.784v-6.741h1.784v6.741zm3.612 0h-1.784v-9.306h1.784v9.306z" fill="#fff"/></svg>