<svg width="250" height="26" viewBox="0 0 250 26" xmlns="http://www.w3.org/2000/svg"><path d="M9.975 18.88h-1.8V6.884h-4.48V5.28h10.78v1.605h-4.5V18.88zm5.455-6.624q0-3.164 1.651-5.121 1.763-2.097 4.862-2.097 1.864 0 3.358.872 1.54.9 2.338 2.524.798 1.623.798 3.664 0 1.976-.761 3.544-.835 1.744-2.44 2.626-1.53.844-3.303.844-1.874 0-3.377-.89-1.54-.92-2.347-2.57-.78-1.605-.78-3.396zm1.855.028q0 2.245 1.179 3.71 1.27 1.578 3.46 1.578 2.273 0 3.525-1.642 1.132-1.494 1.132-3.841 0-3.433-2.198-4.824-1.086-.677-2.431-.677-2.403 0-3.609 1.707-1.058 1.484-1.058 3.989zm20.43 6.596h-1.736V5.28h2.71l3.218 9.63q.4 1.196.65 2.012.26-.844.724-2.18l3.256-9.463h2.421V18.88h-1.735V7.497L43.271 18.88h-1.623L37.714 7.302V18.88zm14.565 0h-1.912l5.224-13.6h1.939l5.566 13.6h-2.05l-1.587-4.12h-5.687l-1.493 4.12zm3.506-9.574l-1.493 3.989h4.61l-1.419-3.767q-.659-1.744-.965-2.82-.269 1.364-.733 2.598zM66.26 18.88h-1.8V5.28h1.8v6.744l6.754-6.745h2.44L69.75 10.79l5.956 8.09H73.33l-4.843-6.884-2.227 2.171v4.713zm13.054 0h-1.8V5.28h1.8v13.6zm4.88 0h-1.726V5.28h1.846l7.144 10.678V5.279h1.725V18.88h-1.846L84.194 8.193V18.88zm22.377-5.334h-3.999V11.95l5.761-.01v5.047q-2.662 2.125-5.631 2.125-1.976 0-3.553-.807-1.707-.882-2.56-2.533-.836-1.623-.836-3.627 0-1.958.77-3.59.863-1.819 2.45-2.673 1.558-.835 3.59-.835 3.098 0 4.536 1.81.678.853 1.03 2.226l-1.623.445q-.576-1.957-2.06-2.588-.844-.352-1.874-.352-2.356 0-3.581 1.363-1.382 1.531-1.382 4.082 0 3.646 2.449 4.862 1.197.593 2.542.593 1.002 0 2.106-.38 1.15-.399 1.865-1.03v-2.532zm11.8 5.334h-1.8V5.28h1.8v13.6zm8.433 0h-1.8V6.884h-4.48V5.28h10.78v1.605h-4.5V18.88zm13.73 0h-1.799V5.28h1.8v13.6zm4.88 0h-1.725V5.28h1.846l7.144 10.678V5.279h1.726V18.88h-1.847l-7.143-10.687V18.88zm26.998-4.769l1.8.455q-.548 2.152-1.976 3.33-1.466 1.216-3.656 1.216-4.193 0-5.668-3.488-.724-1.698-.724-3.646 0-4.398 3.127-6.114 1.493-.817 3.293-.817 2.013 0 3.414 1.021 1.401 1.02 1.958 2.94l-1.772.418q-.91-2.838-3.637-2.838-1.466 0-2.533.686-1.113.724-1.568 2.078-.426 1.271-.426 2.616 0 3.72 2.078 4.964 1.067.64 2.31.64 3.228 0 3.98-3.46zm4.434 4.769h-1.91l5.222-13.6h1.94l5.566 13.6h-2.05l-1.587-4.12h-5.687l-1.494 4.12zm3.507-9.574l-1.493 3.989h4.61l-1.419-3.767q-.659-1.744-.965-2.82-.269 1.364-.733 2.598zm10.456 9.574h-1.726V5.28h1.846l7.144 10.678V5.279h1.726V18.88h-1.847L190.81 8.193V18.88zm12.431 0h-1.91l5.222-13.6h1.94l5.566 13.6h-2.05l-1.587-4.12h-5.687l-1.494 4.12zm3.507-9.574l-1.493 3.989h4.61l-1.419-3.767q-.659-1.744-.965-2.82-.269 1.364-.733 2.598zm13.657 9.574h-4.908V5.28h4.685q1.577 0 2.421.194 2.589.603 3.61 3.294.528 1.42.528 3.237 0 2.941-1.29 4.723-1.066 1.484-2.857 1.92-.956.232-2.19.232zm-3.108-11.996v10.391h2.903q2.375 0 3.331-.956 1.355-1.354 1.355-4.341 0-3.888-2.403-4.815-.724-.279-2.329-.279h-2.857zm12.339 11.996h-1.912l5.224-13.6h1.938l5.567 13.6h-2.05l-1.587-4.12h-5.687l-1.493 4.12zm3.506-9.574l-1.493 3.989h4.61l-1.419-3.767q-.659-1.744-.965-2.82-.269 1.364-.733 2.598zm8.962-2.227h-.872V5.14h1.79v1.531q0 1.243-.287 1.79-.399.752-1.243 1.132l-.408-.658q.965-.39 1.02-1.856zm2.876 0h-.872V5.14h1.79v1.531q0 1.243-.287 1.79-.399.752-1.243 1.132l-.408-.658q.965-.39 1.02-1.856z" fill="#fff"/></svg>