<svg width="144" height="34" viewBox="0 0 144 34" xmlns="http://www.w3.org/2000/svg"><path d="M3.832 10.143v2.607H1.225v-1.865q0-1.131.2-1.785.199-.655.737-1.174.538-.52 1.373-.816l.51 1.076q-.78.26-1.118.723-.339.464-.357 1.234h1.262zm4.35 0v2.607H5.577v-1.865q0-1.14.2-1.79.199-.65.741-1.17.543-.519 1.369-.815l.51 1.076q-.78.26-1.118.723-.339.464-.357 1.234h1.262zM3.896 30.34h-2.55v-13.6h4.11l2.467 9.277 2.44-9.278h4.119V30.34H11.93V19.634L9.23 30.34H6.587l-2.69-10.706V30.34zm19.622 0h-2.737v-5.724L15.8 16.739h3.22l3.2 5.381 3.136-5.38h3.164l-5 7.894v5.706zm17.107 0H37.88v-11.3h-4.035v-2.3h10.808v2.3h-4.027v11.3zm8.461 0H46.34v-13.6h2.746v13.6zm11.319-5l2.662.844q-.612 2.226-2.036 3.307-1.424 1.08-3.614 1.08-2.709 0-4.453-1.85-1.744-1.85-1.744-5.06 0-3.396 1.754-5.275 1.753-1.879 4.61-1.879 2.496 0 4.055 1.476.927.872 1.391 2.504l-2.718.65q-.241-1.058-1.007-1.67-.765-.612-1.86-.612-1.512 0-2.454 1.085-.941 1.086-.941 3.516 0 2.58.928 3.674.927 1.095 2.412 1.095 1.094 0 1.883-.696.789-.696 1.132-2.19zm7.802 5h-2.746v-13.6h2.746v6.039l5.548-6.04h3.692l-5.12 5.298 5.399 8.303h-3.554l-3.738-6.383-2.227 2.273v4.11zm21.282 0H79.145v-13.6h10.084v2.3h-7.338v3.015h6.828v2.292h-6.828v3.701h7.598v2.292zm8.136 0H94.88v-11.3h-4.035v-2.3h10.808v2.3h-4.027v11.3z" fill="#fff"/></svg>