<svg width="244" height="57" viewBox="0 0 244 57" xmlns="http://www.w3.org/2000/svg"><path d="M32.72 21.98h-3.036V6.948h3.035V21.98zm14.324 0H35.61V6.948h11.146V9.49h-8.111v3.332h7.547v2.533h-7.547v4.091h8.398v2.533zm13.238 0H49.7V7.07h3.035v12.377h7.547v2.533zm7.024 0H64.27V9.49h-4.46V6.949h11.945V9.49h-4.45V21.98zm5.64-4.891l2.952-.287q.267 1.487 1.082 2.184.815.697 2.2.697 1.466 0 2.21-.62.743-.62.743-1.451 0-.533-.313-.908-.313-.374-1.092-.65-.533-.185-2.43-.657-2.44-.605-3.425-1.487-1.384-1.24-1.384-3.025 0-1.148.65-2.148.652-1 1.877-1.523 1.226-.523 2.959-.523 2.83 0 4.26 1.241 1.43 1.24 1.502 3.312l-3.035.133q-.195-1.158-.836-1.666-.64-.507-1.922-.507-1.323 0-2.071.543-.482.349-.482.933 0 .533.45.913.575.482 2.79 1.005 2.215.523 3.276 1.081 1.061.56 1.661 1.528.6.97.6 2.395 0 1.292-.718 2.42-.718 1.127-2.03 1.676-1.313.549-3.271.549-2.85 0-4.378-1.318t-1.826-3.84zM93.32 21.98V11.09h2.656v1.487q1.425-1.733 3.394-1.733 1.046 0 1.815.43.769.432 1.26 1.303.719-.871 1.55-1.302.83-.43 1.773-.43 1.2 0 2.03.486.83.487 1.241 1.43.297.698.297 2.257v6.962h-2.88v-6.224q0-1.62-.298-2.092-.4-.615-1.23-.615-.606 0-1.139.369-.533.37-.769 1.082-.236.712-.236 2.25v5.23h-2.881v-5.968q0-1.59-.154-2.05-.154-.462-.477-.688-.323-.225-.876-.225-.667 0-1.2.359-.533.359-.764 1.035-.23.677-.23 2.246v5.291H93.32zm25.194-3.466l2.87.482q-.553 1.58-1.748 2.405-1.194.825-2.989.825-2.84 0-4.204-1.856-1.076-1.487-1.076-3.753 0-2.707 1.415-4.24 1.415-1.533 3.578-1.533 2.43 0 3.835 1.605 1.405 1.605 1.344 4.917h-7.22q.032 1.281.698 1.994.667.713 1.661.713.677 0 1.138-.37.462-.369.698-1.189zm-4.143-2.912h4.307q-.031-1.25-.646-1.902-.615-.651-1.497-.651-.944 0-1.559.687t-.605 1.866zm11.669-1.19l-2.615-.471q.441-1.58 1.518-2.338 1.077-.759 3.2-.759 1.927 0 2.87.457.944.456 1.328 1.158.385.703.385 2.58l-.031 3.362q0 1.436.138 2.118.139.682.518 1.461h-2.85q-.113-.287-.277-.851-.072-.256-.103-.338-.738.717-1.579 1.076-.84.36-1.794.36-1.682 0-2.651-.914-.97-.912-.97-2.307 0-.922.442-1.645.44-.723 1.235-1.108.795-.384 2.292-.671 2.02-.38 2.8-.708v-.287q0-.83-.41-1.184t-1.549-.354q-.769 0-1.2.302-.43.303-.697 1.062zm3.856 2.913v-.574q-.554.184-1.754.44-1.2.257-1.569.503-.564.4-.564 1.015 0 .605.451 1.046.452.44 1.149.44.78 0 1.487-.512.523-.39.687-.953.113-.37.113-1.405zm15.575-2.113v6.768h-2.881v-5.558q0-1.763-.185-2.281-.184-.518-.6-.805-.415-.287-1-.287-.748 0-1.343.41-.594.41-.815 1.087-.22.677-.22 2.502v4.932h-2.882V11.09h2.677v1.6q1.425-1.846 3.589-1.846.953 0 1.743.344.79.343 1.194.876.405.534.564 1.21.16.677.16 1.938zm1.907 3.661l2.892-.44q.185.84.749 1.276.564.436 1.579.436 1.117 0 1.681-.41.38-.288.38-.77 0-.328-.205-.543-.216-.205-.964-.38-3.487-.769-4.42-1.404-1.292-.882-1.292-2.451 0-1.415 1.118-2.379t3.466-.964q2.235 0 3.322.728 1.087.728 1.497 2.154l-2.717.502q-.174-.636-.662-.974-.487-.338-1.389-.338-1.138 0-1.63.317-.328.226-.328.585 0 .308.287.523.39.287 2.691.81 2.302.523 3.215 1.282.902.769.902 2.143 0 1.497-1.25 2.573-1.252 1.077-3.702 1.077-2.225 0-3.523-.902-1.297-.903-1.697-2.45zm18.314 3.107V11.09h2.656v1.487q1.425-1.733 3.394-1.733 1.046 0 1.815.43.769.432 1.26 1.303.719-.871 1.55-1.302.83-.43 1.773-.43 1.2 0 2.03.486.831.487 1.241 1.43.297.698.297 2.257v6.962h-2.88v-6.224q0-1.62-.298-2.092-.4-.615-1.23-.615-.606 0-1.139.369-.533.37-.769 1.082-.236.712-.236 2.25v5.23h-2.881v-5.968q0-1.59-.154-2.05-.154-.462-.477-.688-.323-.225-.876-.225-.667 0-1.2.359-.533.359-.764 1.035-.23.677-.23 2.246v5.291h-2.882zm18.221-5.599q0-1.435.708-2.778.707-1.344 2.004-2.051 1.297-.708 2.897-.708 2.471 0 4.05 1.605 1.58 1.605 1.58 4.055 0 2.472-1.595 4.097-1.595 1.625-4.015 1.625-1.497 0-2.855-.677-1.359-.676-2.066-1.984-.708-1.307-.708-3.184zm2.953.154q0 1.62.77 2.482.768.86 1.896.86t1.892-.86q.764-.862.764-2.502 0-1.6-.764-2.461-.764-.862-1.892-.862t-1.897.862q-.769.861-.769 2.481zm13.3 2.082v3.363h-2.882V11.09h2.676v1.549q.687-1.097 1.236-1.446.549-.349 1.246-.349.984 0 1.897.544l-.892 2.512q-.728-.472-1.354-.472-.605 0-1.025.333-.42.334-.662 1.205-.24.872-.24 3.65zm11.72-.103l2.87.482q-.553 1.58-1.747 2.405-1.195.825-2.99.825-2.84 0-4.204-1.856-1.076-1.487-1.076-3.753 0-2.707 1.415-4.24 1.415-1.533 3.578-1.533 2.43 0 3.835 1.605 1.405 1.605 1.344 4.917h-7.22q.032 1.281.698 1.994.667.713 1.661.713.677 0 1.138-.37.462-.369.698-1.189zm-4.143-2.912h4.307q-.031-1.25-.646-1.902-.615-.651-1.497-.651-.944 0-1.559.687t-.605 1.866zM11.089 51.38h-2.8L4.844 40.49h2.8l2.04 7.137 1.876-7.137h2.78l1.814 7.137 2.082-7.137h2.84l-3.497 10.89h-2.768l-1.877-7.003-1.845 7.003zm14.386-12.366h-2.881v-2.666h2.88v2.666zm0 12.366h-2.881V40.49h2.88v10.89zm5.978-10.89h1.969v2.297h-1.97v4.389q0 1.333.057 1.553.057.22.257.364t.487.144q.4 0 1.158-.277l.246 2.235q-1.004.431-2.276.431-.78 0-1.405-.261-.625-.262-.917-.677-.293-.415-.405-1.123-.093-.502-.093-2.03v-4.748H27.24V40.49h1.322v-2.163l2.892-1.682v3.845zm3.958-4.142h2.881v5.527q1.395-1.63 3.333-1.63.994 0 1.794.368.8.37 1.205.944t.554 1.271q.148.698.148 2.164v6.388h-2.88v-5.752q0-1.713-.165-2.174-.164-.462-.58-.733-.415-.272-1.04-.272-.718 0-1.282.348-.564.35-.825 1.052-.262.702-.262 2.076v5.455h-2.881V36.348zm21.697 4.142h1.969v2.297h-1.969v4.389q0 1.333.057 1.553.056.22.256.364t.487.144q.4 0 1.159-.277l.246 2.235q-1.005.431-2.277.431-.779 0-1.404-.261-.626-.262-.918-.677-.292-.415-.405-1.123-.092-.502-.092-2.03v-4.748h-1.323V40.49h1.323v-2.163l2.891-1.682v3.845zm3.958-4.142h2.882v5.527q1.394-1.63 3.332-1.63.995 0 1.794.368.8.37 1.205.944t.554 1.271q.149.698.149 2.164v6.388H68.1v-5.752q0-1.713-.164-2.174-.164-.462-.58-.733-.414-.272-1.04-.272-.718 0-1.282.348-.564.35-.825 1.052-.261.702-.261 2.076v5.455h-2.882V36.348zM80.21 47.914l2.871.482q-.553 1.58-1.748 2.405-1.195.825-2.989.825-2.84 0-4.204-1.856-1.077-1.487-1.077-3.753 0-2.707 1.415-4.24 1.415-1.533 3.579-1.533 2.43 0 3.835 1.605 1.405 1.605 1.343 4.917h-7.219q.031 1.281.698 1.994.666.713 1.66.713.678 0 1.139-.37.461-.369.697-1.189zm-4.142-2.912h4.306q-.03-1.25-.646-1.902-.615-.651-1.497-.651-.943 0-1.558.687-.616.687-.605 1.866zm15.38 6.378V36.348h6.01q1.783 0 2.66.148.877.15 1.569.62.692.472 1.154 1.257.461.784.461 1.758 0 1.057-.57 1.938-.568.882-1.542 1.323 1.374.4 2.112 1.364.738.964.738 2.266 0 1.025-.477 1.994-.476.97-1.302 1.549-.825.58-2.035.712-.759.082-3.66.103h-5.118zm4.779-12.53h-1.743v3.476h1.989q1.774 0 2.204-.051.78-.093 1.226-.539.446-.446.446-1.174 0-.697-.385-1.133-.384-.436-1.143-.528-.451-.051-2.594-.051zm.707 5.978h-2.45v4.02h2.81q1.64 0 2.08-.093.678-.123 1.103-.6.426-.477.426-1.276 0-.677-.329-1.149-.328-.472-.948-.687-.62-.215-2.692-.215zm12.408 3.189v3.363h-2.882V40.49h2.676v1.549q.687-1.097 1.236-1.446.549-.349 1.246-.349.984 0 1.897.544l-.892 2.512q-.728-.472-1.354-.472-.605 0-1.025.333-.42.334-.661 1.205-.241.872-.241 3.65zm8.295-9.003h-2.881v-2.666h2.881v2.666zm0 12.366h-2.881V40.49h2.881v10.89zm5.978-10.89h1.969v2.297h-1.969v4.389q0 1.333.056 1.553.057.22.257.364t.487.144q.4 0 1.158-.277l.247 2.235q-1.005.431-2.277.431-.78 0-1.405-.261-.625-.262-.917-.677-.293-.415-.405-1.123-.093-.502-.093-2.03v-4.748h-1.322V40.49h1.322v-2.163l2.892-1.682v3.845zm6.85-1.476h-2.882v-2.666h2.882v2.666zm0 12.366h-2.882V40.49h2.882v10.89zm1.938-3.107l2.891-.44q.185.84.749 1.276.564.436 1.579.436 1.118 0 1.681-.41.38-.288.38-.77 0-.328-.205-.543-.216-.205-.964-.38-3.486-.769-4.42-1.404-1.292-.882-1.292-2.451 0-1.415 1.118-2.379t3.466-.964q2.235 0 3.322.728 1.087.728 1.497 2.154l-2.717.502q-.174-.636-.661-.974-.487-.338-1.39-.338-1.138 0-1.63.317-.328.226-.328.585 0 .308.287.523.39.287 2.692.81 2.302.523 3.214 1.282.902.769.902 2.143 0 1.497-1.25 2.573-1.251 1.077-3.702 1.077-2.225 0-3.522-.902-1.298-.903-1.697-2.45zm12.684-11.925h2.881v5.527q1.395-1.63 3.333-1.63.994 0 1.794.368.8.37 1.205.944t.554 1.271q.148.698.148 2.164v6.388h-2.881v-5.752q0-1.713-.164-2.174-.164-.462-.58-.733-.415-.272-1.04-.272-.718 0-1.282.348-.564.35-.826 1.052-.261.702-.261 2.076v5.455h-2.881V36.348zm28.31 9.505l2.944.933q-.677 2.461-2.251 3.656-1.574 1.194-3.994 1.194-2.994 0-4.922-2.045-1.928-2.046-1.928-5.594 0-3.753 1.938-5.83 1.938-2.076 5.097-2.076 2.758 0 4.48 1.63 1.026.965 1.539 2.77l-3.005.717q-.266-1.169-1.112-1.846-.846-.676-2.056-.676-1.672 0-2.712 1.2-1.041 1.2-1.041 3.886 0 2.85 1.025 4.06 1.026 1.21 2.666 1.21 1.21 0 2.082-.769.871-.769 1.25-2.42zm4.861-.072q0-1.435.708-2.778.707-1.344 2.004-2.051 1.297-.708 2.897-.708 2.471 0 4.05 1.605 1.58 1.605 1.58 4.055 0 2.472-1.595 4.097-1.595 1.625-4.015 1.625-1.497 0-2.855-.677-1.359-.676-2.066-1.984-.708-1.307-.708-3.184zm2.953.154q0 1.62.77 2.482.768.86 1.896.86t1.892-.86q.764-.862.764-2.502 0-1.6-.764-2.461-.764-.862-1.892-.862t-1.897.862q-.769.861-.769 2.481zm20.385 5.445h-2.676v-1.63q-.595.871-1.564 1.374-.969.502-2.046.502-1.097 0-1.968-.482-.872-.482-1.262-1.353-.39-.872-.39-2.41v-6.89h2.882v5.003q0 2.297.159 2.815.159.518.58.82.42.303 1.066.303.738 0 1.322-.405.585-.405.8-1.005.216-.6.216-2.938V40.49h2.88v10.89zm12.89-6.768v6.768h-2.882v-5.558q0-1.763-.185-2.281-.184-.518-.6-.805-.415-.287-1-.287-.748 0-1.343.41-.594.41-.815 1.087-.22.677-.22 2.502v4.932h-2.882V40.49h2.677v1.6q1.425-1.846 3.588-1.846.954 0 1.744.344.79.343 1.194.876.405.534.564 1.21.16.677.16 1.938zm12.417-.902l-2.84.513q-.144-.851-.652-1.282-.507-.43-1.317-.43-1.077 0-1.718.743-.64.743-.64 2.486 0 1.938.65 2.738.651.8 1.749.8.82 0 1.343-.467.523-.466.738-1.604l2.83.482q-.44 1.948-1.692 2.942-1.25.995-3.353.995-2.389 0-3.81-1.507-1.42-1.508-1.42-4.174 0-2.696 1.426-4.199 1.425-1.502 3.855-1.502 1.99 0 3.164.856 1.174.857 1.687 2.61zm5.065-4.696h-2.881v-2.666h2.881v2.666zm0 12.366h-2.881V40.49h2.881v10.89zm5.834 0h-2.88V36.348h2.88V51.38z" fill="#fff"/></svg>