<svg width="115" height="55" viewBox="0 0 115 55" xmlns="http://www.w3.org/2000/svg"><path d="M4.235 17.507v2.882H1.354v-2.061q0-1.251.22-1.974.22-.723.815-1.297.595-.575 1.518-.903l.564 1.19q-.862.287-1.236.8-.374.512-.395 1.363h1.395zm4.809 0v2.882H6.163v-2.061q0-1.262.22-1.98.22-.717.82-1.291.6-.575 1.513-.903l.564 1.19q-.862.287-1.236.8-.374.512-.395 1.363h1.395zM4.307 44.03h-2.82V28.998h4.542l2.728 10.254 2.697-10.254h4.552V44.03h-2.82V32.197L10.204 44.03H7.28L4.307 32.197V44.03zm21.687 0h-3.025v-6.327l-5.507-8.705h3.559l3.537 5.947 3.466-5.947h3.497l-5.527 8.726v6.306zm18.908 0h-3.035V31.54h-4.46v-2.542h11.945v2.543h-4.45V44.03zm9.351 0h-3.035V28.998h3.035V44.03zm12.51-5.527l2.943.933q-.677 2.461-2.25 3.656-1.575 1.194-3.995 1.194-2.994 0-4.921-2.045-1.928-2.046-1.928-5.594 0-3.753 1.938-5.83 1.938-2.076 5.096-2.076 2.758 0 4.481 1.63 1.025.965 1.538 2.77l-3.004.717q-.267-1.169-1.113-1.846-.846-.676-2.056-.676-1.671 0-2.712 1.2-1.04 1.2-1.04 3.886 0 2.85 1.025 4.06 1.025 1.21 2.666 1.21 1.21 0 2.081-.769.872-.769 1.251-2.42zm8.624 5.527h-3.035V28.998h3.035v6.675l6.132-6.675h4.08l-5.66 5.855 5.968 9.177H81.98l-4.132-7.055-2.461 2.513v4.542zm23.522 0H87.476V28.998h11.146v2.543h-8.11v3.332h7.546v2.533h-7.547v4.091h8.398v2.533zm8.993 0h-3.035V31.54h-4.46v-2.542h11.945v2.543h-4.45V44.03z" fill="#fff"/></svg>