<svg width="316" height="29" viewBox="0 0 316 29" xmlns="http://www.w3.org/2000/svg"><path d="M7.434 21.98h-1.99V8.722H.493V6.948h11.915v1.774H7.434V21.98zm6.03-7.321q0-3.743 2.01-5.86 2.009-2.118 5.188-2.118 2.081 0 3.753.995 1.67.994 2.548 2.773.876 1.78.876 4.035 0 2.287-.922 4.092-.923 1.804-2.615 2.732-1.692.928-3.65.928-2.123 0-3.795-1.025-1.671-1.025-2.532-2.8-.862-1.773-.862-3.752zm2.05.03q0 2.718 1.461 4.281 1.462 1.564 3.666 1.564 2.246 0 3.697-1.579 1.45-1.579 1.45-4.48 0-1.836-.62-3.205-.62-1.37-1.815-2.123-1.194-.753-2.681-.753-2.112 0-3.635 1.45-1.523 1.451-1.523 4.845zm22.58 7.291h-1.918V6.948h2.994l3.558 10.643q.492 1.487.718 2.225.256-.82.8-2.41l3.599-10.458h2.676V21.98h-1.917V9.398L44.235 21.98h-1.794L38.093 9.183V21.98zm16.098 0H52.08l5.773-15.032h2.143l6.152 15.032h-2.266l-1.754-4.553h-6.285l-1.651 4.553zm3.876-10.582l-1.651 4.41h5.096l-1.569-4.164q-.717-1.897-1.066-3.117-.287 1.446-.81 2.871zM69.645 21.98h-1.99V6.948h1.99v7.454l7.464-7.454h2.697l-6.306 6.09 6.583 8.942h-2.625l-5.353-7.608-2.46 2.399v5.209zm14.427 0h-1.99V6.948h1.99V21.98zm5.393 0h-1.907V6.948h2.04l7.896 11.802V6.948h1.907V21.98h-2.04l-7.896-11.813V21.98zm24.733-5.896h-4.42V14.32l6.368-.01v5.578q-1.466 1.17-3.025 1.759-1.558.59-3.2.59-2.214 0-4.024-.95-1.81-.948-2.732-2.742-.923-1.794-.923-4.01 0-2.194.917-4.096.918-1.902 2.64-2.825 1.723-.923 3.97-.923 1.63 0 2.947.529 1.318.528 2.066 1.47.749.944 1.138 2.462l-1.794.492q-.338-1.148-.84-1.805-.503-.656-1.436-1.05-.933-.395-2.072-.395-1.363 0-2.358.415-.995.415-1.605 1.092t-.948 1.487q-.575 1.394-.575 3.025 0 2.01.693 3.363.692 1.353 2.015 2.01 1.322.656 2.81.656 1.291 0 2.522-.497 1.23-.498 1.866-1.062v-2.799zm13.043 5.896h-1.99V6.948h1.99V21.98zm9.32 0h-1.989V8.722h-4.952V6.948h11.915v1.774h-4.973V21.98zm14.797 0h-1.99V6.948h1.99V21.98zm5.393 0h-1.907V6.948h2.04l7.896 11.802V6.948h1.907V21.98h-2.04l-7.896-11.813V21.98zm29.84-5.27l1.989.502q-.626 2.45-2.251 3.737t-3.974 1.287q-2.43 0-3.952-.99-1.523-.989-2.318-2.865-.794-1.877-.794-4.03 0-2.348.897-4.096.897-1.749 2.553-2.656 1.656-.908 3.645-.908 2.256 0 3.794 1.149 1.538 1.148 2.143 3.23l-1.958.461q-.523-1.64-1.518-2.389-.994-.748-2.502-.748-1.733 0-2.897.83-1.163.83-1.635 2.23t-.472 2.887q0 1.917.56 3.348.558 1.43 1.737 2.138 1.18.707 2.553.707 1.672 0 2.83-.964 1.16-.964 1.57-2.86zm4.9 5.27h-2.112l5.773-15.032h2.143l6.153 15.032h-2.266l-1.754-4.553h-6.285l-1.651 4.553zm3.877-10.582l-1.651 4.41h5.096l-1.569-4.164q-.718-1.897-1.066-3.117-.287 1.446-.81 2.871zm11.556 10.582h-1.907V6.948h2.04l7.896 11.802V6.948h1.907V21.98h-2.04l-7.896-11.813V21.98zm13.74 0h-2.112l5.773-15.032h2.143l6.152 15.032h-2.266l-1.753-4.553h-6.286l-1.65 4.553zm3.876-10.582l-1.65 4.41h5.095l-1.568-4.164q-.718-1.897-1.067-3.117-.287 1.446-.81 2.871zm15.094 10.582h-5.425V6.948h5.179q1.753 0 2.676.215 1.292.297 2.205 1.077 1.189 1.005 1.779 2.568.59 1.564.59 3.574 0 1.712-.4 3.035-.4 1.323-1.026 2.19-.626.866-1.369 1.363t-1.794.754q-1.051.256-2.415.256zm-3.435-13.258v11.484h3.21q1.486 0 2.332-.277.846-.277 1.348-.78.708-.707 1.103-1.901.394-1.195.394-2.897 0-2.358-.774-3.625-.774-1.266-1.881-1.697-.8-.307-2.574-.307h-3.158zm13.637 13.258h-2.112l5.773-15.032h2.143l6.152 15.032h-2.266l-1.753-4.553h-6.286l-1.65 4.553zm3.876-10.582l-1.65 4.41h5.096l-1.57-4.164q-.717-1.897-1.066-3.117-.287 1.446-.81 2.871zm9.906-2.461h-.964V6.794h1.979v1.692q0 1.374-.318 1.979-.441.83-1.374 1.25l-.451-.727q.553-.226.825-.713.272-.487.303-1.338zm3.178 0h-.963V6.794h1.979v1.692q0 1.374-.318 1.979-.441.83-1.374 1.25l-.452-.727q.554-.226.826-.713.272-.487.302-1.338z" fill="#fff"/></svg>